  0
SECTION
  2
HEADER
  9
$ACADVER
  1
AC1024
  9
$ACADMAINTVER
 70
6
  9
$DWGCODEPAGE
  3
ANSI_1252
  9
$LASTSAVEDBY
  1
ezdxf
  9
$INSBASE
 10
0.0
 20
0.0
 30
0.0
  9
$EXTMIN
 10
1e+20
 20
1e+20
 30
1e+20
  9
$EXTMAX
 10
-1e+20
 20
-1e+20
 30
-1e+20
  9
$LIMMIN
 10
0.0
 20
0.0
  9
$LIMMAX
 10
420.0
 20
297.0
  9
$ORTHOMODE
 70
0
  9
$REGENMODE
 70
1
  9
$FILLMODE
 70
1
  9
$QTEXTMODE
 70
0
  9
$MIRRTEXT
 70
1
  9
$LTSCALE
 40
1.0
  9
$ATTMODE
 70
1
  9
$TEXTSIZE
 40
2.5
  9
$TRACEWID
 40
1.0
  9
$TEXTSTYLE
  7
Standard
  9
$CLAYER
  8
0
  9
$CELTYPE
  6
ByLayer
  9
$CECOLOR
 62
256
  9
$CELTSCALE
 40
1.0
  9
$DISPSILH
 70
0
  9
$DIMSCALE
 40
1.0
  9
$DIMASZ
 40
2.5
  9
$DIMEXO
 40
0.625
  9
$DIMDLI
 40
3.75
  9
$DIMRND
 40
0.0
  9
$DIMDLE
 40
0.0
  9
$DIMEXE
 40
1.25
  9
$DIMTP
 40
0.0
  9
$DIMTM
 40
0.0
  9
$DIMTXT
 40
2.5
  9
$DIMCEN
 40
2.5
  9
$DIMTSZ
 40
0.0
  9
$DIMTOL
 70
0
  9
$DIMLIM
 70
0
  9
$DIMTIH
 70
0
  9
$DIMTOH
 70
0
  9
$DIMSE1
 70
0
  9
$DIMSE2
 70
0
  9
$DIMTAD
 70
1
  9
$DIMZIN
 70
8
  9
$DIMBLK
  1

  9
$DIMASO
 70
1
  9
$DIMSHO
 70
1
  9
$DIMPOST
  1

  9
$DIMAPOST
  1

  9
$DIMALT
 70
0
  9
$DIMALTD
 70
3
  9
$DIMALTF
 40
0.03937007874
  9
$DIMLFAC
 40
1.0
  9
$DIMTOFL
 70
1
  9
$DIMTVP
 40
0.0
  9
$DIMTIX
 70
0
  9
$DIMSOXD
 70
0
  9
$DIMSAH
 70
0
  9
$DIMBLK1
  1

  9
$DIMBLK2
  1

  9
$DIMSTYLE
  2
ISO-25
  9
$DIMCLRD
 70
0
  9
$DIMCLRE
 70
0
  9
$DIMCLRT
 70
0
  9
$DIMTFAC
 40
1.0
  9
$DIMGAP
 40
0.625
  9
$DIMJUST
 70
0
  9
$DIMSD1
 70
0
  9
$DIMSD2
 70
0
  9
$DIMTOLJ
 70
0
  9
$DIMTZIN
 70
8
  9
$DIMALTZ
 70
0
  9
$DIMALTTZ
 70
0
  9
$DIMUPT
 70
0
  9
$DIMDEC
 70
2
  9
$DIMTDEC
 70
2
  9
$DIMALTU
 70
2
  9
$DIMALTTD
 70
3
  9
$DIMTXSTY
  7
Standard
  9
$DIMAUNIT
 70
0
  9
$DIMADEC
 70
0
  9
$DIMALTRND
 40
0.0
  9
$DIMAZIN
 70
0
  9
$DIMDSEP
 70
44
  9
$DIMATFIT
 70
3
  9
$DIMFRAC
 70
0
  9
$DIMLDRBLK
  1

  9
$DIMLUNIT
 70
2
  9
$DIMLWD
 70
-2
  9
$DIMLWE
 70
-2
  9
$DIMTMOVE
 70
0
  9
$DIMFXL
 40
1.0
  9
$DIMFXLON
 70
0
  9
$DIMJOGANG
 40
0.785398163397
  9
$DIMTFILL
 70
0
  9
$DIMTFILLCLR
 70
0
  9
$DIMARCSYM
 70
0
  9
$DIMLTYPE
  6

  9
$DIMLTEX1
  6

  9
$DIMLTEX2
  6

  9
$DIMTXTDIRECTION
 70
0
  9
$LUNITS
 70
2
  9
$LUPREC
 70
4
  9
$SKETCHINC
 40
1.0
  9
$FILLETRAD
 40
10.0
  9
$AUNITS
 70
0
  9
$AUPREC
 70
2
  9
$MENU
  1
.
  9
$ELEVATION
 40
0.0
  9
$PELEVATION
 40
0.0
  9
$THICKNESS
 40
0.0
  9
$LIMCHECK
 70
0
  9
$CHAMFERA
 40
0.0
  9
$CHAMFERB
 40
0.0
  9
$CHAMFERC
 40
0.0
  9
$CHAMFERD
 40
0.0
  9
$SKPOLY
 70
0
  9
$TDCREATE
 40
2461109.339502315
  9
$TDUCREATE
 40
2458532.153996898
  9
$TDUPDATE
 40
2461109.339502315
  9
$TDUUPDATE
 40
2458532.1544311
  9
$TDINDWG
 40
0.0
  9
$TDUSRTIMER
 40
0.0
  9
$USRTIMER
 70
1
  9
$ANGBASE
 50
0.0
  9
$ANGDIR
 70
0
  9
$PDMODE
 70
0
  9
$PDSIZE
 40
0.0
  9
$PLINEWID
 40
0.0
  9
$SPLFRAME
 70
0
  9
$SPLINETYPE
 70
6
  9
$SPLINESEGS
 70
8
  9
$HANDSEED
  5
F6
  9
$SURFTAB1
 70
6
  9
$SURFTAB2
 70
6
  9
$SURFTYPE
 70
6
  9
$SURFU
 70
6
  9
$SURFV
 70
6
  9
$UCSBASE
  2

  9
$UCSNAME
  2

  9
$UCSORG
 10
0.0
 20
0.0
 30
0.0
  9
$UCSXDIR
 10
1.0
 20
0.0
 30
0.0
  9
$UCSYDIR
 10
0.0
 20
1.0
 30
0.0
  9
$UCSORTHOREF
  2

  9
$UCSORTHOVIEW
 70
0
  9
$UCSORGTOP
 10
0.0
 20
0.0
 30
0.0
  9
$UCSORGBOTTOM
 10
0.0
 20
0.0
 30
0.0
  9
$UCSORGLEFT
 10
0.0
 20
0.0
 30
0.0
  9
$UCSORGRIGHT
 10
0.0
 20
0.0
 30
0.0
  9
$UCSORGFRONT
 10
0.0
 20
0.0
 30
0.0
  9
$UCSORGBACK
 10
0.0
 20
0.0
 30
0.0
  9
$PUCSBASE
  2

  9
$PUCSNAME
  2

  9
$PUCSORG
 10
0.0
 20
0.0
 30
0.0
  9
$PUCSXDIR
 10
1.0
 20
0.0
 30
0.0
  9
$PUCSYDIR
 10
0.0
 20
1.0
 30
0.0
  9
$PUCSORTHOREF
  2

  9
$PUCSORTHOVIEW
 70
0
  9
$PUCSORGTOP
 10
0.0
 20
0.0
 30
0.0
  9
$PUCSORGBOTTOM
 10
0.0
 20
0.0
 30
0.0
  9
$PUCSORGLEFT
 10
0.0
 20
0.0
 30
0.0
  9
$PUCSORGRIGHT
 10
0.0
 20
0.0
 30
0.0
  9
$PUCSORGFRONT
 10
0.0
 20
0.0
 30
0.0
  9
$PUCSORGBACK
 10
0.0
 20
0.0
 30
0.0
  9
$USERI1
 70
0
  9
$USERI2
 70
0
  9
$USERI3
 70
0
  9
$USERI4
 70
0
  9
$USERI5
 70
0
  9
$USERR1
 40
0.0
  9
$USERR2
 40
0.0
  9
$USERR3
 40
0.0
  9
$USERR4
 40
0.0
  9
$USERR5
 40
0.0
  9
$WORLDVIEW
 70
1
  9
$SHADEDGE
 70
3
  9
$SHADEDIF
 70
70
  9
$TILEMODE
 70
1
  9
$MAXACTVP
 70
64
  9
$PINSBASE
 10
0.0
 20
0.0
 30
0.0
  9
$PLIMCHECK
 70
0
  9
$PEXTMIN
 10
1e+20
 20
1e+20
 30
1e+20
  9
$PEXTMAX
 10
-1e+20
 20
-1e+20
 30
-1e+20
  9
$PLIMMIN
 10
0.0
 20
0.0
  9
$PLIMMAX
 10
420.0
 20
297.0
  9
$UNITMODE
 70
0
  9
$VISRETAIN
 70
1
  9
$PLINEGEN
 70
0
  9
$PSLTSCALE
 70
1
  9
$TREEDEPTH
 70
3020
  9
$CMLSTYLE
  2
Standard
  9
$CMLJUST
 70
0
  9
$CMLSCALE
 40
20.0
  9
$PROXYGRAPHICS
 70
1
  9
$MEASUREMENT
 70
1
  9
$CELWEIGHT
370
-1
  9
$ENDCAPS
280
0
  9
$JOINSTYLE
280
0
  9
$LWDISPLAY
290
0
  9
$INSUNITS
 70
6
  9
$HYPERLINKBASE
  1

  9
$STYLESHEET
  1

  9
$XEDIT
290
1
  9
$CEPSNTYPE
380
0
  9
$PSTYLEMODE
290
1
  9
$FINGERPRINTGUID
  2
{9D99E700-2B6C-40D7-BF0E-C5FC5141CAA5}
  9
$VERSIONGUID
  2
{D6F7A1CC-F467-43B6-B12C-CE1BE9DA7C81}
  9
$EXTNAMES
290
1
  9
$PSVPSCALE
 40
0.0
  9
$OLESTARTUP
290
0
  9
$SORTENTS
280
127
  9
$INDEXCTL
280
0
  9
$HIDETEXT
280
1
  9
$XCLIPFRAME
280
1
  9
$HALOGAP
280
0
  9
$OBSCOLOR
 70
257
  9
$OBSLTYPE
280
0
  9
$INTERSECTIONDISPLAY
280
0
  9
$INTERSECTIONCOLOR
 70
257
  9
$DIMASSOC
280
2
  9
$PROJECTNAME
  1

  9
$CAMERADISPLAY
290
0
  9
$LENSLENGTH
 40
50.0
  9
$CAMERAHEIGHT
 40
0.0
  9
$STEPSPERSEC
 40
24.0
  9
$STEPSIZE
 40
100.0
  9
$3DDWFPREC
 40
2.0
  9
$PSOLWIDTH
 40
0.005
  9
$PSOLHEIGHT
 40
0.08
  9
$LOFTANG1
 40
1.570796326795
  9
$LOFTANG2
 40
1.570796326795
  9
$LOFTMAG1
 40
0.0
  9
$LOFTMAG2
 40
0.0
  9
$LOFTPARAM
 70
7
  9
$LOFTNORMALS
280
1
  9
$LATITUDE
 40
37.795
  9
$LONGITUDE
 40
-122.394
  9
$NORTHDIRECTION
 40
0.0
  9
$TIMEZONE
 70
-8000
  9
$LIGHTGLYPHDISPLAY
280
1
  9
$TILEMODELIGHTSYNCH
280
1
  9
$CMATERIAL
347
20
  9
$SOLIDHIST
280
0
  9
$SHOWHIST
280
1
  9
$DWFFRAME
280
2
  9
$DGNFRAME
280
2
  9
$REALWORLDSCALE
290
1
  9
$INTERFERECOLOR
 62
256
  9
$CSHADOW
280
0
  9
$SHADOWPLANELOCATION
 40
0.0
  0
ENDSEC
  0
SECTION
  2
CLASSES
  0
CLASS
  1
ACDBDICTIONARYWDFLT
  2
AcDbDictionaryWithDefault
  3
ObjectDBX Classes
 90
0
 91
0
280
0
281
0
  0
CLASS
  1
SUN
  2
AcDbSun
  3
SCENEOE
 90
1153
 91
0
280
0
281
0
  0
CLASS
  1
VISUALSTYLE
  2
AcDbVisualStyle
  3
ObjectDBX Classes
 90
4095
 91
0
280
0
281
0
  0
CLASS
  1
MATERIAL
  2
AcDbMaterial
  3
ObjectDBX Classes
 90
1153
 91
0
280
0
281
0
  0
CLASS
  1
SCALE
  2
AcDbScale
  3
ObjectDBX Classes
 90
1153
 91
0
280
0
281
0
  0
CLASS
  1
TABLESTYLE
  2
AcDbTableStyle
  3
ObjectDBX Classes
 90
4095
 91
0
280
0
281
0
  0
CLASS
  1
MLEADERSTYLE
  2
AcDbMLeaderStyle
  3
ACDB_MLEADERSTYLE_CLASS
 90
4095
 91
0
280
0
281
0
  0
CLASS
  1
DICTIONARYVAR
  2
AcDbDictionaryVar
  3
ObjectDBX Classes
 90
0
 91
0
280
0
281
0
  0
CLASS
  1
CELLSTYLEMAP
  2
AcDbCellStyleMap
  3
ObjectDBX Classes
 90
1152
 91
0
280
0
281
0
  0
CLASS
  1
MENTALRAYRENDERSETTINGS
  2
AcDbMentalRayRenderSettings
  3
SCENEOE
 90
1024
 91
0
280
0
281
0
  0
CLASS
  1
ACDBDETAILVIEWSTYLE
  2
AcDbDetailViewStyle
  3
ObjectDBX Classes
 90
1025
 91
0
280
0
281
0
  0
CLASS
  1
ACDBSECTIONVIEWSTYLE
  2
AcDbSectionViewStyle
  3
ObjectDBX Classes
 90
1025
 91
0
280
0
281
0
  0
CLASS
  1
RASTERVARIABLES
  2
AcDbRasterVariables
  3
ISM
 90
0
 91
0
280
0
281
0
  0
CLASS
  1
ACDBPLACEHOLDER
  2
AcDbPlaceHolder
  3
ObjectDBX Classes
 90
0
 91
0
280
0
281
0
  0
CLASS
  1
LAYOUT
  2
AcDbLayout
  3
ObjectDBX Classes
 90
0
 91
0
280
0
281
0
  0
ENDSEC
  0
SECTION
  2
TABLES
  0
TABLE
  2
VPORT
  5
8
330
0
100
AcDbSymbolTable
 70
1
  0
VPORT
  5
23
330
8
100
AcDbSymbolTableRecord
100
AcDbViewportTableRecord
  2
*Active
 70
0
 10
0.0
 20
0.0
 11
1.0
 21
1.0
 12
0.0
 22
0.0
 13
0.0
 23
0.0
 14
0.5
 24
0.5
 15
0.5
 25
0.5
 16
0.0
 26
0.0
 36
1.0
 17
0.0
 27
0.0
 37
0.0
 40
1000.0
 41
1.34
 42
50.0
 43
0.0
 44
0.0
 50
0.0
 51
0.0
 71
0
 72
1000
 73
1
 74
3
 75
0
 76
0
 77
0
 78
0
281
0
 65
0
146
0.0
  0
ENDTAB
  0
TABLE
  2
LTYPE
  5
2
330
0
100
AcDbSymbolTable
 70
3
  0
LTYPE
  5
24
330
2
100
AcDbSymbolTableRecord
100
AcDbLinetypeTableRecord
  2
ByBlock
 70
0
  3

 72
65
 73
0
 40
0.0
  0
LTYPE
  5
25
330
2
100
AcDbSymbolTableRecord
100
AcDbLinetypeTableRecord
  2
ByLayer
 70
0
  3

 72
65
 73
0
 40
0.0
  0
LTYPE
  5
26
330
2
100
AcDbSymbolTableRecord
100
AcDbLinetypeTableRecord
  2
Continuous
 70
0
  3

 72
65
 73
0
 40
0.0
  0
ENDTAB
  0
TABLE
  2
LAYER
  5
1
330
0
100
AcDbSymbolTable
 70
4
  0
LAYER
  5
27
330
1
100
AcDbSymbolTableRecord
100
AcDbLayerTableRecord
  2
0
 70
0
 62
7
  6
Continuous
370
-3
390
13
347
21
  0
LAYER
  5
28
330
1
100
AcDbSymbolTableRecord
100
AcDbLayerTableRecord
  2
Defpoints
 70
0
 62
7
  6
Continuous
290
0
370
-3
390
13
347
21
  0
LAYER
  5
2F
330
1
100
AcDbSymbolTableRecord
100
AcDbLayerTableRecord
  2
LINIEN
 70
0
 62
6
  6
Continuous
370
-3
390
13
347
21
  0
LAYER
  5
30
330
1
100
AcDbSymbolTableRecord
100
AcDbLayerTableRecord
  2
RECHTECKE
 70
0
 62
3
  6
Continuous
370
-3
390
13
347
21
  0
ENDTAB
  0
TABLE
  2
STYLE
  5
5
330
0
100
AcDbSymbolTable
 70
1
  0
STYLE
  5
29
330
5
100
AcDbSymbolTableRecord
100
AcDbTextStyleTableRecord
  2
Standard
 70
0
 40
0.0
 41
1.0
 50
0.0
 71
0
 42
2.5
  3
txt
  4

  0
ENDTAB
  0
TABLE
  2
VIEW
  5
7
330
0
100
AcDbSymbolTable
 70
0
  0
ENDTAB
  0
TABLE
  2
UCS
  5
6
330
0
100
AcDbSymbolTable
 70
0
  0
ENDTAB
  0
TABLE
  2
APPID
  5
3
330
0
100
AcDbSymbolTable
 70
3
  0
APPID
  5
2A
330
3
100
AcDbSymbolTableRecord
100
AcDbRegAppTableRecord
  2
ACAD
 70
0
  0
APPID
  5
F3
330
3
100
AcDbSymbolTableRecord
100
AcDbRegAppTableRecord
  2
HATCHBACKGROUNDCOLOR
 70
0
  0
APPID
  5
F4
330
3
100
AcDbSymbolTableRecord
100
AcDbRegAppTableRecord
  2
EZDXF
 70
0
  0
ENDTAB
  0
TABLE
  2
DIMSTYLE
  5
4
330
0
100
AcDbSymbolTable
 70
1
100
AcDbDimStyleTable
  0
DIMSTYLE
105
2B
330
4
100
AcDbSymbolTableRecord
100
AcDbDimStyleTableRecord
  2
Standard
 70
0
 40
1.0
 41
2.5
 42
0.625
 43
3.75
 44
1.25
 45
0.0
 46
0.0
 47
0.0
 48
0.0
 49
2.5
140
2.5
141
2.5
142
0.0
143
0.03937007874
144
1.0
145
0.0
146
1.0
147
0.625
148
0.0
 69
0
 70
0
 71
0
 72
0
 73
0
 74
0
 75
0
 76
0
 77
1
 78
8
 79
3
170
0
171
3
172
1
173
0
174
0
175
0
176
0
177
0
178
0
179
2
271
2
272
2
273
2
274
3
275
0
276
0
277
2
278
44
279
0
280
0
281
0
282
0
283
0
284
8
285
0
286
0
288
0
289
3
290
0
371
-2
372
-2
  0
ENDTAB
  0
TABLE
  2
BLOCK_RECORD
  5
9
330
0
100
AcDbSymbolTable
 70
2
  0
BLOCK_RECORD
  5
17
330
9
100
AcDbSymbolTableRecord
100
AcDbBlockTableRecord
  2
*Model_Space
340
1A
 70
0
280
1
281
0
  0
BLOCK_RECORD
  5
1B
330
9
100
AcDbSymbolTableRecord
100
AcDbBlockTableRecord
  2
*Paper_Space
340
1E
 70
0
280
1
281
0
  0
ENDTAB
  0
ENDSEC
  0
SECTION
  2
BLOCKS
  0
BLOCK
  5
18
330
17
100
AcDbEntity
  8
0
100
AcDbBlockBegin
  2
*Model_Space
 70
0
 10
0.0
 20
0.0
 30
0.0
  3
*Model_Space
  1

  0
ENDBLK
  5
19
330
17
100
AcDbEntity
  8
0
100
AcDbBlockEnd
  0
BLOCK
  5
1C
330
1B
100
AcDbEntity
  8
0
100
AcDbBlockBegin
  2
*Paper_Space
 70
0
 10
0.0
 20
0.0
 30
0.0
  3
*Paper_Space
  1

  0
ENDBLK
  5
1D
330
1B
100
AcDbEntity
  8
0
100
AcDbBlockEnd
  0
ENDSEC
  0
SECTION
  2
ENTITIES
  0
LINE
  5
31
330
17
100
AcDbEntity
  8
LINIEN
100
AcDbLine
 10
3570435.21627
 20
5363305.99298
 30
0.0
 11
3570439.5415
 21
5363320.07183
 31
0.0
  0
LWPOLYLINE
  5
32
330
17
100
AcDbEntity
  8
RECHTECKE
100
AcDbPolyline
 90
5
 70
0
 10
3570433.3044555224
 20
5363306.580317554
 10
3570437.629685522
 20
5363320.659167554
 10
3570441.4533144776
 20
5363319.484492445
 10
3570437.128084478
 20
5363305.405642445
 10
3570433.3044555224
 20
5363306.580317554
  0
LINE
  5
33
330
17
100
AcDbEntity
  8
LINIEN
100
AcDbLine
 10
3570529.98841
 20
5363274.42188
 30
0.0
 11
3570535.25549
 21
5363291.58692
 31
0.0
  0
LWPOLYLINE
  5
34
330
17
100
AcDbEntity
  8
RECHTECKE
100
AcDbPolyline
 90
5
 70
0
 10
3570528.0763994763
 20
5363275.008579034
 10
3570533.343479476
 20
5363292.173619034
 10
3570537.167500524
 20
5363291.000220966
 10
3570531.900420524
 20
5363273.835180966
 10
3570528.0763994763
 20
5363275.008579034
  0
LINE
  5
35
330
17
100
AcDbEntity
  8
LINIEN
100
AcDbLine
 10
3570627.79192
 20
5363250.50742
 30
0.0
 11
3570632.10738
 21
5363267.34745
 31
0.0
  0
LWPOLYLINE
  5
36
330
17
100
AcDbEntity
  8
RECHTECKE
100
AcDbPolyline
 90
5
 70
0
 10
3570625.8545231875
 20
5363251.003901209
 10
3570630.169983187
 20
5363267.843931209
 10
3570634.0447768127
 20
5363266.850968791
 10
3570629.729316813
 20
5363250.010938791
 10
3570625.8545231875
 20
5363251.003901209
  0
LINE
  5
37
330
17
100
AcDbEntity
  8
LINIEN
100
AcDbLine
 10
3570725.65411
 20
5363228.15674
 30
0.0
 11
3570730.34956
 21
5363249.2939
 31
0.0
  0
LWPOLYLINE
  5
38
330
17
100
AcDbEntity
  8
RECHTECKE
100
AcDbPolyline
 90
5
 70
0
 10
3570723.7017026977
 20
5363228.59045157
 10
3570728.3971526977
 20
5363249.727611571
 10
3570732.3019673023
 20
5363248.860188429
 10
3570727.6065173023
 20
5363227.723028429
 10
3570723.7017026977
 20
5363228.59045157
  0
LINE
  5
39
330
17
100
AcDbEntity
  8
LINIEN
100
AcDbLine
 10
3570824.49916
 20
5363208.79218
 30
0.0
 11
3570827.26406
 21
5363224.28308
 31
0.0
  0
LWPOLYLINE
  5
3A
330
17
100
AcDbEntity
  8
RECHTECKE
100
AcDbPolyline
 90
5
 70
0
 10
3570822.5302755553
 20
5363209.143597193
 10
3570825.295175555
 20
5363224.634497194
 10
3570829.2329444448
 20
5363223.931662807
 10
3570826.468044445
 20
5363208.440762807
 10
3570822.5302755553
 20
5363209.143597193
  0
LINE
  5
3B
330
17
100
AcDbEntity
  8
LINIEN
100
AcDbLine
 10
3570922.82312
 20
5363191.4349
 30
0.0
 11
3570925.59546
 21
5363207.12941
 31
0.0
  0
LWPOLYLINE
  5
3C
330
17
100
AcDbEntity
  8
RECHTECKE
100
AcDbPolyline
 90
5
 70
0
 10
3570920.853611339
 20
5363191.782801759
 10
3570923.625951339
 20
5363207.477311759
 10
3570927.564968661
 20
5363206.78150824
 10
3570924.792628661
 20
5363191.08699824
 10
3570920.853611339
 20
5363191.782801759
  0
LINE
  5
3D
330
17
100
AcDbEntity
  8
LINIEN
100
AcDbLine
 10
3571024.68562
 20
5363178.23856
 30
0.0
 11
3571025.95947
 21
5363194.8521
 31
0.0
  0
LWPOLYLINE
  5
3E
330
17
100
AcDbEntity
  8
RECHTECKE
100
AcDbPolyline
 90
5
 70
0
 10
3571022.691473322
 20
5363178.391462016
 10
3571023.965323322
 20
5363195.005002015
 10
3571027.9536166782
 20
5363194.699197984
 10
3571026.6797666783
 20
5363178.085657985
 10
3571022.691473322
 20
5363178.391462016
  0
LINE
  5
3F
330
17
100
AcDbEntity
  8
LINIEN
100
AcDbLine
 10
3571130.81261
 20
5363174.59622
 30
0.0
 11
3571128.81489
 21
5363196.52344
 31
0.0
  0
LWPOLYLINE
  5
40
330
17
100
AcDbEntity
  8
RECHTECKE
100
AcDbPolyline
 90
5
 70
0
 10
3571128.8208591403
 20
5363174.414757848
 10
3571126.8231391404
 20
5363196.341977848
 10
3571130.8066408597
 20
5363196.704902152
 10
3571132.8043608596
 20
5363174.777682152
 10
3571128.8208591403
 20
5363174.414757848
  0
LINE
  5
41
330
17
100
AcDbEntity
  8
LINIEN
100
AcDbLine
 10
3571049.81882
 20
5363175.77596
 30
0.0
 11
3571051.02761
 21
5363193.44023
 31
0.0
  0
LWPOLYLINE
  5
42
330
17
100
AcDbEntity
  8
RECHTECKE
100
AcDbPolyline
 90
5
 70
0
 10
3571047.8234864683
 20
5363175.912503385
 10
3571049.0322764684
 20
5363193.576773385
 10
3571053.022943532
 20
5363193.303686615
 10
3571051.814153532
 20
5363175.6394166155
 10
3571047.8234864683
 20
5363175.912503385
  0
LINE
  5
43
330
17
100
AcDbEntity
  8
LINIEN
100
AcDbLine
 10
3571079.48522
 20
5363173.22446
 30
0.0
 11
3571078.32303
 21
5363193.45411
 31
0.0
  0
LWPOLYLINE
  5
44
330
17
100
AcDbEntity
  8
RECHTECKE
100
AcDbPolyline
 90
5
 70
0
 10
3571077.488512336
 20
5363173.10974948
 10
3571076.3263223357
 20
5363193.33939948
 10
3571080.3197376644
 20
5363193.56882052
 10
3571081.4819276645
 20
5363173.33917052
 10
3571077.488512336
 20
5363173.10974948
  0
LINE
  5
45
330
17
100
AcDbEntity
  8
LINIEN
100
AcDbLine
 10
3571105.52507
 20
5363176.07538
 30
0.0
 11
3571103.86299
 21
5363194.43735
 31
0.0
  0
LWPOLYLINE
  5
46
330
17
100
AcDbEntity
  8
RECHTECKE
100
AcDbPolyline
 90
5
 70
0
 10
3571103.533213414
 20
5363175.895082081
 10
3571101.8711334136
 20
5363194.257052081
 10
3571105.854846586
 20
5363194.61764792
 10
3571107.516926586
 20
5363176.25567792
 10
3571103.533213414
 20
5363175.895082081
  0
LINE
  5
47
330
17
100
AcDbEntity
  8
LINIEN
100
AcDbLine
 10
3570998.96136
 20
5363180.3182
 30
0.0
 11
3571000.39216
 21
5363197.19345
 31
0.0
  0
LWPOLYLINE
  5
48
330
17
100
AcDbEntity
  8
RECHTECKE
100
AcDbPolyline
 90
5
 70
0
 10
3570996.9685102887
 20
5363180.487167533
 10
3570998.3993102885
 20
5363197.362417533
 10
3571002.385009711
 20
5363197.024482467
 10
3571000.9542097114
 20
5363180.149232467
 10
3570996.9685102887
 20
5363180.487167533
  0
LINE
  5
49
330
17
100
AcDbEntity
  8
LINIEN
100
AcDbLine
 10
3570973.22012
 20
5363183.0515
 30
0.0
 11
3570975.49105
 21
5363200.1114
 31
0.0
  0
LWPOLYLINE
  5
4A
330
17
100
AcDbEntity
  8
RECHTECKE
100
AcDbPolyline
 90
5
 70
0
 10
3570971.237607561
 20
5363183.315402308
 10
3570973.5085375607
 20
5363200.375302307
 10
3570977.473562439
 20
5363199.847497692
 10
3570975.2026324393
 20
5363182.787597693
 10
3570971.237607561
 20
5363183.315402308
  0
LINE
  5
4B
330
17
100
AcDbEntity
  8
LINIEN
100
AcDbLine
 10
3570948.45382
 20
5363186.96107
 30
0.0
 11
3570951.05919
 21
5363203.34804
 31
0.0
  0
LWPOLYLINE
  5
4C
330
17
100
AcDbEntity
  8
RECHTECKE
100
AcDbPolyline
 90
5
 70
0
 10
3570946.478628576
 20
5363187.275106365
 10
3570949.083998576
 20
5363203.662076364
 10
3570953.034381424
 20
5363203.034003635
 10
3570950.429011424
 20
5363186.6470336355
 10
3570946.478628576
 20
5363187.275106365
  0
LINE
  5
4D
330
17
100
AcDbEntity
  8
LINIEN
100
AcDbLine
 10
3570898.13078
 20
5363195.66299
 30
0.0
 11
3570900.90853
 21
5363211.1301
 31
0.0
  0
LWPOLYLINE
  5
4E
330
17
100
AcDbEntity
  8
RECHTECKE
100
AcDbPolyline
 90
5
 70
0
 10
3570896.16227305
 20
5363196.0165156545
 10
3570898.94002305
 20
5363211.483625654
 10
3570902.87703695
 20
5363210.776574345
 10
3570900.0992869497
 20
5363195.309464346
 10
3570896.16227305
 20
5363196.0165156545
  0
LINE
  5
4F
330
17
100
AcDbEntity
  8
LINIEN
100
AcDbLine
 10
3570875.3347
 20
5363199.99665
 30
0.0
 11
3570878.05124
 21
5363215.2121
 31
0.0
  0
LWPOLYLINE
  5
50
330
17
100
AcDbEntity
  8
RECHTECKE
100
AcDbPolyline
 90
5
 70
0
 10
3570873.3658335498
 20
5363200.348167994
 10
3570876.0823735497
 20
5363215.563617994
 10
3570880.02010645
 20
5363214.860582006
 10
3570877.3035664503
 20
5363199.645132006
 10
3570873.3658335498
 20
5363200.348167994
  0
LINE
  5
51
330
17
100
AcDbEntity
  8
LINIEN
100
AcDbLine
 10
3570846.48528
 20
5363204.88183
 30
0.0
 11
3570849.23003
 21
5363220.35979
 31
0.0
  0
LWPOLYLINE
  5
52
330
17
100
AcDbEntity
  8
RECHTECKE
100
AcDbPolyline
 90
5
 70
0
 10
3570844.516004157
 20
5363205.231047202
 10
3570847.260754157
 20
5363220.709007202
 10
3570851.1993058436
 20
5363220.010572799
 10
3570848.4545558435
 20
5363204.532612799
 10
3570844.516004157
 20
5363205.231047202
  0
LINE
  5
53
330
17
100
AcDbEntity
  8
LINIEN
100
AcDbLine
 10
3570482.29013
 20
5363289.15591
 30
0.0
 11
3570487.34928
 21
5363305.64194
 31
0.0
  0
LWPOLYLINE
  5
54
330
17
100
AcDbEntity
  8
RECHTECKE
100
AcDbPolyline
 90
5
 70
0
 10
3570480.3781332583
 20
5363289.742653947
 10
3570485.4372832584
 20
5363306.228683947
 10
3570489.261276742
 20
5363305.055196052
 10
3570484.202126742
 20
5363288.569166053
 10
3570480.3781332583
 20
5363289.742653947
  0
LINE
  5
55
330
17
100
AcDbEntity
  8
LINIEN
100
AcDbLine
 10
3570580.66264
 20
5363263.56567
 30
0.0
 11
3570583.50217
 21
5363278.73113
 31
0.0
  0
LWPOLYLINE
  5
56
330
17
100
AcDbEntity
  8
RECHTECKE
100
AcDbPolyline
 90
5
 70
0
 10
3570578.696801919
 20
5363263.933746947
 10
3570581.536331919
 20
5363279.099206947
 10
3570585.4680080814
 20
5363278.363053054
 10
3570582.6284780814
 20
5363263.197593054
 10
3570578.696801919
 20
5363263.933746947
  0
LINE
  5
57
330
17
100
AcDbEntity
  8
LINIEN
100
AcDbLine
 10
3570676.87494
 20
5363239.03695
 30
0.0
 11
3570681.15164
 21
5363257.9908
 31
0.0
  0
LWPOLYLINE
  5
58
330
17
100
AcDbEntity
  8
RECHTECKE
100
AcDbPolyline
 90
5
 70
0
 10
3570674.9239872172
 20
5363239.477158177
 10
3570679.200687217
 20
5363258.431008177
 10
3570683.1025927826
 20
5363257.550591823
 10
3570678.825892783
 20
5363238.596741823
 10
3570674.9239872172
 20
5363239.477158177
  0
LINE
  5
59
330
17
100
AcDbEntity
  8
LINIEN
100
AcDbLine
 10
3570774.99357
 20
5363217.89696
 30
0.0
 11
3570777.93277
 21
5363232.79462
 31
0.0
  0
LWPOLYLINE
  5
5A
330
17
100
AcDbEntity
  8
RECHTECKE
100
AcDbPolyline
 90
5
 70
0
 10
3570773.0313937343
 20
5363218.28408311
 10
3570775.970593734
 20
5363233.1817431105
 10
3570779.8949462655
 20
5363232.407496889
 10
3570776.9557462656
 20
5363217.509836889
 10
3570773.0313937343
 20
5363218.28408311
  0
LINE
  5
5B
330
17
100
AcDbEntity
  8
LINIEN
100
AcDbLine
 10
3570458.77044
 20
5363297.67627
 30
0.0
 11
3570463.43068
 21
5363312.81561
 31
0.0
  0
LWPOLYLINE
  5
5C
330
17
100
AcDbEntity
  8
RECHTECKE
100
AcDbPolyline
 90
5
 70
0
 10
3570456.8589523197
 20
5363298.2646702435
 10
3570461.51919232
 20
5363313.404010244
 10
3570465.3421676806
 20
5363312.227209756
 10
3570460.6819276805
 20
5363297.087869756
 10
3570456.8589523197
 20
5363298.2646702435
  0
LINE
  5
5D
330
17
100
AcDbEntity
  8
LINIEN
100
AcDbLine
 10
3570506.31704
 20
5363282.30209
 30
0.0
 11
3570511.32845
 21
5363298.71882
 31
0.0
  0
LWPOLYLINE
  5
5E
330
17
100
AcDbEntity
  8
RECHTECKE
100
AcDbPolyline
 90
5
 70
0
 10
3570504.4041802003
 20
5363282.886014127
 10
3570509.4155902
 20
5363299.302744127
 10
3570513.2413097997
 20
5363298.134895873
 10
3570508.2298998
 20
5363281.718165874
 10
3570504.4041802003
 20
5363282.886014127
  0
LINE
  5
5F
330
17
100
AcDbEntity
  8
LINIEN
100
AcDbLine
 10
3570555.04899
 20
5363266.71867
 30
0.0
 11
3570559.33116
 21
5363285.1
 31
0.0
  0
LWPOLYLINE
  5
60
330
17
100
AcDbEntity
  8
RECHTECKE
100
AcDbPolyline
 90
5
 70
0
 10
3570553.1011480815
 20
5363267.17244512
 10
3570557.3833180815
 20
5363285.55377512
 10
3570561.2790019186
 20
5363284.64622488
 10
3570556.9968319186
 20
5363266.26489488
 10
3570553.1011480815
 20
5363267.17244512
  0
LINE
  5
61
330
17
100
AcDbEntity
  8
LINIEN
100
AcDbLine
 10
3570603.34541
 20
5363257.13287
 30
0.0
 11
3570607.73185
 21
5363272.84929
 31
0.0
  0
LWPOLYLINE
  5
62
330
17
100
AcDbEntity
  8
RECHTECKE
100
AcDbPolyline
 90
5
 70
0
 10
3570601.41903207
 20
5363257.670520509
 10
3570605.80547207
 20
5363273.386940509
 10
3570609.6582279303
 20
5363272.3116394915
 10
3570605.2717879303
 20
5363256.595219491
 10
3570601.41903207
 20
5363257.670520509
  0
LINE
  5
63
330
17
100
AcDbEntity
  8
LINIEN
100
AcDbLine
 10
3570652.40557
 20
5363244.61848
 30
0.0
 11
3570656.56029
 21
5363262.40055
 31
0.0
  0
LWPOLYLINE
  5
64
330
17
100
AcDbEntity
  8
RECHTECKE
100
AcDbPolyline
 90
5
 70
0
 10
3570650.4580226685
 20
5363245.073517791
 10
3570654.6127426685
 20
5363262.855587792
 10
3570658.5078373314
 20
5363261.945512209
 10
3570654.3531173314
 20
5363244.163442208
 10
3570650.4580226685
 20
5363245.073517791
  0
LINE
  5
65
330
17
100
AcDbEntity
  8
LINIEN
100
AcDbLine
 10
3570701.22601
 20
5363233.65229
 30
0.0
 11
3570705.7548
 21
5363253.65922
 31
0.0
  0
LWPOLYLINE
  5
66
330
17
100
AcDbEntity
  8
RECHTECKE
100
AcDbPolyline
 90
5
 70
0
 10
3570699.2753607063
 20
5363234.093841053
 10
3570703.8041507066
 20
5363254.100771053
 10
3570707.705449294
 20
5363253.217668947
 10
3570703.1766592935
 20
5363233.210738947
 10
3570699.2753607063
 20
5363234.093841053
  0
LINE
  5
67
330
17
100
AcDbEntity
  8
LINIEN
100
AcDbLine
 10
3570750.26719
 20
5363222.74765
 30
0.0
 11
3570754.0426
 21
5363240.83888
 31
0.0
  0
LWPOLYLINE
  5
68
330
17
100
AcDbEntity
  8
RECHTECKE
100
AcDbPolyline
 90
5
 70
0
 10
3570748.3093676446
 20
5363223.156222668
 10
3570752.0847776444
 20
5363241.247452667
 10
3570756.0004223553
 20
5363240.430307332
 10
3570752.2250123555
 20
5363222.339077333
 10
3570748.3093676446
 20
5363223.156222668
  0
LINE
  5
69
330
17
100
AcDbEntity
  8
LINIEN
100
AcDbLine
 10
3570799.95145
 20
5363213.30494
 30
0.0
 11
3570802.69056
 21
5363228.6721
 31
0.0
  0
LWPOLYLINE
  5
6A
330
17
100
AcDbEntity
  8
RECHTECKE
100
AcDbPolyline
 90
5
 70
0
 10
3570797.9824835127
 20
5363213.655897222
 10
3570800.7215935127
 20
5363229.023057222
 10
3570804.6595264873
 20
5363228.321142778
 10
3570801.9204164874
 20
5363212.953982778
 10
3570797.9824835127
 20
5363213.655897222
  0
LINE
  5
6B
330
17
100
AcDbEntity
  8
LINIEN
100
AcDbLine
 10
3568607.28724
 20
5364100.15059
 30
0.0
 11
3568618.51685
 21
5364114.61586
 31
0.0
  0
LWPOLYLINE
  5
6C
330
17
100
AcDbEntity
  8
RECHTECKE
100
AcDbPolyline
 90
5
 70
0
 10
3568605.7074165167
 20
5364101.377031095
 10
3568616.9370265165
 20
5364115.842301096
 10
3568620.096673483
 20
5364113.389418905
 10
3568608.867063483
 20
5364098.924148904
 10
3568605.7074165167
 20
5364101.377031095
  0
LINE
  5
6D
330
17
100
AcDbEntity
  8
LINIEN
100
AcDbLine
 10
3568587.66688
 20
5364115.76697
 30
0.0
 11
3568598.84546
 21
5364129.97155
 31
0.0
  0
LWPOLYLINE
  5
6E
330
17
100
AcDbEntity
  8
RECHTECKE
100
AcDbPolyline
 90
5
 70
0
 10
3568586.095202659
 20
5364117.003833103
 10
3568597.273782659
 20
5364131.208413103
 10
3568600.417137341
 20
5364128.734686897
 10
3568589.238557341
 20
5364114.5301068975
 10
3568586.095202659
 20
5364117.003833103
  0
LINE
  5
6F
330
17
100
AcDbEntity
  8
LINIEN
100
AcDbLine
 10
3568568.0496
 20
5364131.38123
 30
0.0
 11
3568579.29408
 21
5364145.48161
 31
0.0
  0
LWPOLYLINE
  5
70
330
17
100
AcDbEntity
  8
RECHTECKE
100
AcDbPolyline
 90
5
 70
0
 10
3568566.4859263413
 20
5364132.628196195
 10
3568577.730406341
 20
5364146.7285761945
 10
3568580.8577536587
 20
5364144.234643806
 10
3568569.613273659
 20
5364130.134263806
 10
3568566.4859263413
 20
5364132.628196195
  0
LINE
  5
71
330
17
100
AcDbEntity
  8
LINIEN
100
AcDbLine
 10
3568548.48627
 20
5364147.09619
 30
0.0
 11
3568559.8632
 21
5364161.12262
 31
0.0
  0
LWPOLYLINE
  5
72
330
17
100
AcDbEntity
  8
RECHTECKE
100
AcDbPolyline
 90
5
 70
0
 10
3568546.9329832923
 20
5364148.356071106
 10
3568558.309913292
 20
5364162.382501106
 10
3568561.416486708
 20
5364159.862738893
 10
3568550.039556708
 20
5364145.836308894
 10
3568546.9329832923
 20
5364148.356071106
  0
LINE
  5
73
330
17
100
AcDbEntity
  8
LINIEN
100
AcDbLine
 10
3568529.02785
 20
5364162.77277
 30
0.0
 11
3568540.49327
 21
5364176.84744
 31
0.0
  0
LWPOLYLINE
  5
74
330
17
100
AcDbEntity
  8
RECHTECKE
100
AcDbPolyline
 90
5
 70
0
 10
3568527.4772273814
 20
5364164.035928538
 10
3568538.942647381
 20
5364178.110598538
 10
3568542.0438926187
 20
5364175.584281461
 10
3568530.578472619
 20
5364161.509611461
 10
3568527.4772273814
 20
5364164.035928538
  0
LINE
  5
75
330
17
100
AcDbEntity
  8
LINIEN
100
AcDbLine
 10
3568509.53131
 20
5364178.47999
 30
0.0
 11
3568521.08194
 21
5364192.65989
 31
0.0
  0
LWPOLYLINE
  5
76
330
17
100
AcDbEntity
  8
RECHTECKE
100
AcDbPolyline
 90
5
 70
0
 10
3568507.980659975
 20
5364179.743114895
 10
3568519.531289975
 20
5364193.923014895
 10
3568522.6325900247
 20
5364191.3967651045
 10
3568511.081960025
 20
5364177.216865105
 10
3568507.980659975
 20
5364179.743114895
  0
LINE
  5
77
330
17
100
AcDbEntity
  8
LINIEN
100
AcDbLine
 10
3568490.0611
 20
5364194.16601
 30
0.0
 11
3568501.7019
 21
5364208.45051
 31
0.0
  0
LWPOLYLINE
  5
78
330
17
100
AcDbEntity
  8
RECHTECKE
100
AcDbPolyline
 90
5
 70
0
 10
3568488.5107138907
 20
5364195.429458817
 10
3568500.151513891
 20
5364209.713958817
 10
3568503.2522861096
 20
5364207.187061183
 10
3568491.6114861094
 20
5364192.902561183
 10
3568488.5107138907
 20
5364195.429458817
  0
LINE
  5
79
330
17
100
AcDbEntity
  8
LINIEN
100
AcDbLine
 10
3568470.60762
 20
5364209.83848
 30
0.0
 11
3568482.30938
 21
5364224.24536
 31
0.0
  0
LWPOLYLINE
  5
7A
330
17
100
AcDbEntity
  8
RECHTECKE
100
AcDbPolyline
 90
5
 70
0
 10
3568469.0551900365
 20
5364211.09941664
 10
3568480.7569500366
 20
5364225.506296639
 10
3568483.8618099634
 20
5364222.984423361
 10
3568472.1600499633
 20
5364208.577543361
 10
3568469.0551900365
 20
5364211.09941664
  0
LINE
  5
7B
330
17
100
AcDbEntity
  8
LINIEN
100
AcDbLine
 10
3568451.08447
 20
5364225.45726
 30
0.0
 11
3568462.94273
 21
5364239.99021
 31
0.0
  0
LWPOLYLINE
  5
7C
330
17
100
AcDbEntity
  8
RECHTECKE
100
AcDbPolyline
 90
5
 70
0
 10
3568449.534867002
 20
5364226.721669169
 10
3568461.393127002
 20
5364241.25461917
 10
3568464.4923329977
 20
5364238.725800831
 10
3568452.634072998
 20
5364224.19285083
 10
3568449.534867002
 20
5364226.721669169
  0
LINE
  5
7D
330
17
100
AcDbEntity
  8
LINIEN
100
AcDbLine
 10
3568431.69658
 20
5364241.26831
 30
0.0
 11
3568443.5452
 21
5364255.80912
 31
0.0
  0
LWPOLYLINE
  5
7E
330
17
100
AcDbEntity
  8
RECHTECKE
100
AcDbPolyline
 90
5
 70
0
 10
3568430.146138883
 20
5364242.531691313
 10
3568441.994758883
 20
5364257.072501313
 10
3568445.095641117
 20
5364254.545738688
 10
3568433.2470211172
 20
5364240.004928688
 10
3568430.146138883
 20
5364242.531691313
  0
LINE
  5
7F
330
17
100
AcDbEntity
  8
LINIEN
100
AcDbLine
 10
3568412.22552
 20
5364256.95857
 30
0.0
 11
3568424.1717
 21
5364271.60491
 31
0.0
  0
LWPOLYLINE
  5
80
330
17
100
AcDbEntity
  8
RECHTECKE
100
AcDbPolyline
 90
5
 70
0
 10
3568410.675678528
 20
5364258.2226868505
 10
3568422.621858528
 20
5364272.869026851
 10
3568425.721541472
 20
5364270.34079315
 10
3568413.775361472
 20
5364255.694453149
 10
3568410.675678528
 20
5364258.2226868505
  0
LINE
  5
81
330
17
100
AcDbEntity
  8
LINIEN
100
AcDbLine
 10
3568392.79276
 20
5364272.66007
 30
0.0
 11
3568404.77631
 21
5364287.39367
 31
0.0
  0
LWPOLYLINE
  5
82
330
17
100
AcDbEntity
  8
RECHTECKE
100
AcDbPolyline
 90
5
 70
0
 10
3568391.241176447
 20
5364273.9220480025
 10
3568403.224726447
 20
5364288.655648002
 10
3568406.3278935533
 20
5364286.131691998
 10
3568394.3443435533
 20
5364271.398091998
 10
3568391.241176447
 20
5364273.9220480025
  0
LINE
  5
83
330
17
100
AcDbEntity
  8
LINIEN
100
AcDbLine
 10
3568373.34489
 20
5364288.37385
 30
0.0
 11
3568385.39925
 21
5364303.16407
 31
0.0
  0
LWPOLYLINE
  5
84
330
17
100
AcDbEntity
  8
RECHTECKE
100
AcDbPolyline
 90
5
 70
0
 10
3568371.7945776046
 20
5364289.637389266
 10
3568383.8489376046
 20
5364304.427609266
 10
3568386.949562395
 20
5364301.900530734
 10
3568374.895202395
 20
5364287.110310734
 10
3568371.7945776046
 20
5364289.637389266
  0
LINE
  5
85
330
17
100
AcDbEntity
  8
LINIEN
100
AcDbLine
 10
3568353.89429
 20
5364304.0898
 30
0.0
 11
3568366.00951
 21
5364318.9634
 31
0.0
  0
LWPOLYLINE
  5
86
330
17
100
AcDbEntity
  8
RECHTECKE
100
AcDbPolyline
 90
5
 70
0
 10
3568352.3436153415
 20
5364305.352894654
 10
3568364.458835341
 20
5364320.226494653
 10
3568367.5601846585
 20
5364317.700305346
 10
3568355.444964659
 20
5364302.826705347
 10
3568352.3436153415
 20
5364305.352894654
  0
LINE
  5
87
330
17
100
AcDbEntity
  8
LINIEN
100
AcDbLine
 10
3568334.45045
 20
5364319.80029
 30
0.0
 11
3568346.62307
 21
5364334.75057
 31
0.0
  0
LWPOLYLINE
  5
88
330
17
100
AcDbEntity
  8
RECHTECKE
100
AcDbPolyline
 90
5
 70
0
 10
3568332.8995183734
 20
5364321.0630691135
 10
3568345.0721383737
 20
5364336.013349114
 10
3568348.1740016267
 20
5364333.487790886
 10
3568336.0013816264
 20
5364318.537510886
 10
3568332.8995183734
 20
5364321.0630691135
  0
LINE
  5
89
330
17
100
AcDbEntity
  8
LINIEN
100
AcDbLine
 10
3568314.99631
 20
5364335.51913
 30
0.0
 11
3568327.24399
 21
5364350.5355
 31
0.0
  0
LWPOLYLINE
  5
8A
330
17
100
AcDbEntity
  8
RECHTECKE
100
AcDbPolyline
 90
5
 70
0
 10
3568313.4464527424
 20
5364336.783227497
 10
3568325.6941327425
 20
5364351.799597497
 10
3568328.7938472573
 20
5364349.271402503
 10
3568316.5461672572
 20
5364334.255032503
 10
3568313.4464527424
 20
5364336.783227497
  0
LINE
  5
8B
330
17
100
AcDbEntity
  8
LINIEN
100
AcDbLine
 10
3568295.56301
 20
5364351.22108
 30
0.0
 11
3568307.86781
 21
5364366.33356
 31
0.0
  0
LWPOLYLINE
  5
8C
330
17
100
AcDbEntity
  8
RECHTECKE
100
AcDbPolyline
 90
5
 70
0
 10
3568294.012084185
 20
5364352.483866251
 10
3568306.316884185
 20
5364367.596346252
 10
3568309.418735815
 20
5364365.070773749
 10
3568297.113935815
 20
5364349.958293748
 10
3568294.012084185
 20
5364352.483866251
  0
LINE
  5
8D
330
17
100
AcDbEntity
  8
LINIEN
100
AcDbLine
 10
3568276.15958
 20
5364367.00599
 30
0.0
 11
3568288.48407
 21
5364382.12397
 31
0.0
  0
LWPOLYLINE
  5
8E
330
17
100
AcDbEntity
  8
RECHTECKE
100
AcDbPolyline
 90
5
 70
0
 10
3568274.6094181733
 20
5364368.269713986
 10
3568286.933908173
 20
5364383.387693985
 10
3568290.0342318267
 20
5364380.860246015
 10
3568277.709741827
 20
5364365.742266015
 10
3568274.6094181733
 20
5364368.269713986
  0
LINE
  5
8F
330
17
100
AcDbEntity
  8
LINIEN
100
AcDbLine
 10
3568256.77847
 20
5364382.78257
 30
0.0
 11
3568269.09611
 21
5364397.91501
 31
0.0
  0
LWPOLYLINE
  5
90
330
17
100
AcDbEntity
  8
RECHTECKE
100
AcDbPolyline
 90
5
 70
0
 10
3568255.227372975
 20
5364384.045145947
 10
3568267.545012975
 20
5364399.177585946
 10
3568270.6472070245
 20
5364396.652434053
 10
3568258.3295670245
 20
5364381.519994053
 10
3568255.227372975
 20
5364384.045145947
  0
LINE
  5
91
330
17
100
AcDbEntity
  8
LINIEN
100
AcDbLine
 10
3568237.38396
 20
5364398.57007
 30
0.0
 11
3568249.71131
 21
5364413.69544
 31
0.0
  0
LWPOLYLINE
  5
92
330
17
100
AcDbEntity
  8
RECHTECKE
100
AcDbPolyline
 90
5
 70
0
 10
3568235.8336393354
 20
5364399.83359912
 10
3568248.1609893357
 20
5364414.95896912
 10
3568251.2616306646
 20
5364412.43191088
 10
3568238.934280664
 20
5364397.30654088
 10
3568235.8336393354
 20
5364399.83359912
  0
LINE
  5
93
330
17
100
AcDbEntity
  8
LINIEN
100
AcDbLine
 10
3568217.98201
 20
5364414.36362
 30
0.0
 11
3568230.318
 21
5364429.50094
 31
0.0
  0
LWPOLYLINE
  5
94
330
17
100
AcDbEntity
  8
RECHTECKE
100
AcDbPolyline
 90
5
 70
0
 10
3568216.431634194
 20
5364415.62708146
 10
3568228.7676241943
 20
5364430.76440146
 10
3568231.8683758057
 20
5364428.237478539
 10
3568219.5323858056
 20
5364413.10015854
 10
3568216.431634194
 20
5364415.62708146
  0
LINE
  5
95
330
17
100
AcDbEntity
  8
LINIEN
100
AcDbLine
 10
3568198.61446
 20
5364430.12916
 30
0.0
 11
3568210.94411
 21
5364445.28035
 31
0.0
  0
LWPOLYLINE
  5
96
330
17
100
AcDbEntity
  8
RECHTECKE
100
AcDbPolyline
 90
5
 70
0
 10
3568197.0631999597
 20
5364431.391535652
 10
3568209.39284996
 20
5364446.5427256515
 10
3568212.49537004
 20
5364444.017974348
 10
3568200.16572004
 20
5364428.866784348
 10
3568197.0631999597
 20
5364431.391535652
  0
LINE
  5
97
330
17
100
AcDbEntity
  8
LINIEN
100
AcDbLine
 10
3568179.22769
 20
5364445.91035
 30
0.0
 11
3568191.55087
 21
5364461.05879
 31
0.0
  0
LWPOLYLINE
  5
98
330
17
100
AcDbEntity
  8
RECHTECKE
100
AcDbPolyline
 90
5
 70
0
 10
3568177.6762177804
 20
5364447.172464873
 10
3568189.9993977803
 20
5364462.320904873
 10
3568193.1023422196
 20
5364459.796675127
 10
3568180.7791622197
 20
5364444.648235126
 10
3568177.6762177804
 20
5364447.172464873
  0
LINE
  5
99
330
17
100
AcDbEntity
  8
LINIEN
100
AcDbLine
 10
3568159.83114
 20
5364461.6995
 30
0.0
 11
3568172.16651
 21
5364476.83755
 31
0.0
  0
LWPOLYLINE
  5
9A
330
17
100
AcDbEntity
  8
RECHTECKE
100
AcDbPolyline
 90
5
 70
0
 10
3568158.2807032615
 20
5364462.962886686
 10
3568170.6160732615
 20
5364478.100936687
 10
3568173.7169467383
 20
5364475.574163314
 10
3568161.3815767383
 20
5364460.436113314
 10
3568158.2807032615
 20
5364462.962886686
  0
LINE
  5
9B
330
17
100
AcDbEntity
  8
LINIEN
100
AcDbLine
 10
3568140.42077
 20
5364477.4999
 30
0.0
 11
3568152.75591
 21
5364492.65149
 31
0.0
  0
LWPOLYLINE
  5
9C
330
17
100
AcDbEntity
  8
RECHTECKE
100
AcDbPolyline
 90
5
 70
0
 10
3568138.8697688105
 20
5364478.762593673
 10
3568151.20490881
 20
5364493.9141836725
 10
3568154.3069111896
 20
5364491.388796328
 10
3568141.97177119
 20
5364476.237206328
 10
3568138.8697688105
 20
5364478.762593673
  0
LINE
  5
9D
330
17
100
AcDbEntity
  8
LINIEN
100
AcDbLine
 10
3568121.05081
 20
5364493.26741
 30
0.0
 11
3568133.404
 21
5364508.41654
 31
0.0
  0
LWPOLYLINE
  5
9E
330
17
100
AcDbEntity
  8
RECHTECKE
100
AcDbPolyline
 90
5
 70
0
 10
3568119.500813839
 20
5364494.531337174
 10
3568131.854003839
 20
5364509.680467173
 10
3568134.953996161
 20
5364507.152612826
 10
3568122.600806161
 20
5364492.003482826
 10
3568119.500813839
 20
5364494.531337174
  0
LINE
  5
9F
330
17
100
AcDbEntity
  8
LINIEN
100
AcDbLine
 10
3568101.67551
 20
5364509.06098
 30
0.0
 11
3568114.02534
 21
5364524.21376
 31
0.0
  0
LWPOLYLINE
  5
A0
330
17
100
AcDbEntity
  8
RECHTECKE
100
AcDbPolyline
 90
5
 70
0
 10
3568100.125196377
 20
5364510.3245177595
 10
3568112.475026377
 20
5364525.47729776
 10
3568115.5756536233
 20
5364522.95022224
 10
3568103.225823623
 20
5364507.79744224
 10
3568100.125196377
 20
5364510.3245177595
  0
LINE
  5
A1
330
17
100
AcDbEntity
  8
LINIEN
100
AcDbLine
 10
3568082.30639
 20
5364524.85255
 30
0.0
 11
3568094.63896
 21
5364540.00658
 31
0.0
  0
LWPOLYLINE
  5
A2
330
17
100
AcDbEntity
  8
RECHTECKE
100
AcDbPolyline
 90
5
 70
0
 10
3568080.7551604738
 20
5364526.114963148
 10
3568093.087730474
 20
5364541.268993148
 10
3568096.1901895264
 20
5364538.744166852
 10
3568083.8576195263
 20
5364523.590136852
 10
3568080.7551604738
 20
5364526.114963148
  0
LINE
  5
A3
330
17
100
AcDbEntity
  8
LINIEN
100
AcDbLine
 10
3568062.88582
 20
5364540.68605
 30
0.0
 11
3568075.22013
 21
5364555.81561
 31
0.0
  0
LWPOLYLINE
  5
A4
330
17
100
AcDbEntity
  8
RECHTECKE
100
AcDbPolyline
 90
5
 70
0
 10
3568061.3356772284
 20
5364541.949797358
 10
3568073.6699872282
 20
5364557.079357359
 10
3568076.7702727714
 20
5364554.551862641
 10
3568064.4359627715
 20
5364539.422302641
 10
3568061.3356772284
 20
5364541.949797358
  0
LINE
  5
A5
330
17
100
AcDbEntity
  8
LINIEN
100
AcDbLine
 10
3568043.54819
 20
5364556.45194
 30
0.0
 11
3568055.87562
 21
5364571.58226
 31
0.0
  0
LWPOLYLINE
  5
A6
330
17
100
AcDbEntity
  8
RECHTECKE
100
AcDbPolyline
 90
5
 70
0
 10
3568041.9976709066
 20
5364557.715225614
 10
3568054.3251009067
 20
5364572.845545613
 10
3568057.4261390935
 20
5364570.318974386
 10
3568045.0987090934
 20
5364555.188654386
 10
3568041.9976709066
 20
5364557.715225614
  0
LINE
  5
A7
330
17
100
AcDbEntity
  8
LINIEN
100
AcDbLine
 10
3568024.17916
 20
5364572.24342
 30
0.0
 11
3568036.48325
 21
5364587.36785
 31
0.0
  0
LWPOLYLINE
  5
A8
330
17
100
AcDbEntity
  8
RECHTECKE
100
AcDbPolyline
 90
5
 70
0
 10
3568022.627709977
 20
5364573.505562158
 10
3568034.931799977
 20
5364588.629992158
 10
3568038.034700023
 20
5364586.105707842
 10
3568025.730610023
 20
5364570.981277842
 10
3568022.627709977
 20
5364573.505562158
  0
LINE
  5
A9
330
17
100
AcDbEntity
  8
LINIEN
100
AcDbLine
 10
3568004.79636
 20
5364588.04613
 30
0.0
 11
3568017.09711
 21
5364603.14618
 31
0.0
  0
LWPOLYLINE
  5
AA
330
17
100
AcDbEntity
  8
RECHTECKE
100
AcDbPolyline
 90
5
 70
0
 10
3568003.2457394595
 20
5364589.30929109
 10
3568015.5464894595
 20
5364604.40934109
 10
3568018.6477305405
 20
5364601.88301891
 10
3568006.3469805405
 20
5364586.7829689095
 10
3568003.2457394595
 20
5364589.30929109
  0
LINE
  5
AB
330
17
100
AcDbEntity
  8
LINIEN
100
AcDbLine
 10
3567985.37094
 20
5364603.88358
 30
0.0
 11
3567997.66923
 21
5364618.97391
 31
0.0
  0
LWPOLYLINE
  5
AC
330
17
100
AcDbEntity
  8
RECHTECKE
100
AcDbPolyline
 90
5
 70
0
 10
3567983.820594079
 20
5364605.14707813
 10
3567996.118884079
 20
5364620.23740813
 10
3567999.219575921
 20
5364617.71041187
 10
3567986.921285921
 20
5364602.62008187
 10
3567983.820594079
 20
5364605.14707813
  0
LINE
  5
AD
330
17
100
AcDbEntity
  8
LINIEN
100
AcDbLine
 10
3567792.35121
 20
5364762.83705
 30
0.0
 11
3567803.80858
 21
5364776.90442
 31
0.0
  0
LWPOLYLINE
  5
AE
330
17
100
AcDbEntity
  8
RECHTECKE
100
AcDbPolyline
 90
5
 70
0
 10
3567790.800473851
 20
5364764.10006916
 10
3567802.257843851
 20
5364778.167439159
 10
3567805.359316149
 20
5364775.64140084
 10
3567793.901946149
 20
5364761.574030841
 10
3567790.800473851
 20
5364764.10006916
  0
LINE
  5
AF
330
17
100
AcDbEntity
  8
LINIEN
100
AcDbLine
 10
3567772.92297
 20
5364778.83384
 30
0.0
 11
3567784.29504
 21
5364792.79709
 31
0.0
  0
LWPOLYLINE
  5
B0
330
17
100
AcDbEntity
  8
RECHTECKE
100
AcDbPolyline
 90
5
 70
0
 10
3567771.372206771
 20
5364780.09682591
 10
3567782.744276771
 20
5364794.060075909
 10
3567785.8458032296
 20
5364791.53410409
 10
3567774.4737332296
 20
5364777.570854091
 10
3567771.372206771
 20
5364780.09682591
  0
LINE
  5
B1
330
17
100
AcDbEntity
  8
LINIEN
100
AcDbLine
 10
3567753.69877
 20
5364794.49968
 30
0.0
 11
3567764.9713
 21
5364808.44339
 31
0.0
  0
LWPOLYLINE
  5
B2
330
17
100
AcDbEntity
  8
RECHTECKE
100
AcDbPolyline
 90
5
 70
0
 10
3567752.1434495305
 20
5364795.757049571
 10
3567763.41597953
 20
5364809.70075957
 10
3567766.5266204695
 20
5364807.186020429
 10
3567755.25409047
 20
5364793.24231043
 10
3567752.1434495305
 20
5364795.757049571
  0
LINE
  5
B3
330
17
100
AcDbEntity
  8
LINIEN
100
AcDbLine
 10
3567734.33407
 20
5364810.11842
 30
0.0
 11
3567745.33563
 21
5364824.12656
 31
0.0
  0
LWPOLYLINE
  5
B4
330
17
100
AcDbEntity
  8
RECHTECKE
100
AcDbPolyline
 90
5
 70
0
 10
3567732.7611695775
 20
5364811.353727356
 10
3567743.7627295777
 20
5364825.361867355
 10
3567746.9085304225
 20
5364822.891252644
 10
3567735.9069704222
 20
5364808.883112645
 10
3567732.7611695775
 20
5364811.353727356
  0
LINE
  5
B5
330
17
100
AcDbEntity
  8
LINIEN
100
AcDbLine
 10
3567714.78692
 20
5364825.57067
 30
0.0
 11
3567725.51275
 21
5364839.55349
 31
0.0
  0
LWPOLYLINE
  5
B6
330
17
100
AcDbEntity
  8
RECHTECKE
100
AcDbPolyline
 90
5
 70
0
 10
3567713.2000179295
 20
5364826.787938179
 10
3567723.92584793
 20
5364840.770758179
 10
3567727.0996520706
 20
5364838.336221821
 10
3567716.37382207
 20
5364824.353401821
 10
3567713.2000179295
 20
5364826.787938179
  0
LINE
  5
B7
330
17
100
AcDbEntity
  8
LINIEN
100
AcDbLine
 10
3567694.92208
 20
5364840.5355
 30
0.0
 11
3567705.42014
 21
5364854.67409
 31
0.0
  0
LWPOLYLINE
  5
B8
330
17
100
AcDbEntity
  8
RECHTECKE
100
AcDbPolyline
 90
5
 70
0
 10
3567693.3163263514
 20
5364841.727789907
 10
3567703.8143863515
 20
5364855.866379906
 10
3567707.0258936486
 20
5364853.481800093
 10
3567696.5278336485
 20
5364839.343210094
 10
3567693.3163263514
 20
5364841.727789907
  0
LINE
  5
B9
330
17
100
AcDbEntity
  8
LINIEN
100
AcDbLine
 10
3567674.73886
 20
5364855.00069
 30
0.0
 11
3567684.98314
 21
5364869.37008
 31
0.0
  0
LWPOLYLINE
  5
BA
330
17
100
AcDbEntity
  8
RECHTECKE
100
AcDbPolyline
 90
5
 70
0
 10
3567673.1103447075
 20
5364856.161697296
 10
3567683.3546247077
 20
5364870.531087296
 10
3567686.6116552926
 20
5364868.2090727035
 10
3567676.3673752923
 20
5364853.839682704
 10
3567673.1103447075
 20
5364856.161697296
  0
LINE
  5
BB
330
17
100
AcDbEntity
  8
LINIEN
100
AcDbLine
 10
3567546.24583
 20
5364928.91193
 30
0.0
 11
3567553.63348
 21
5364944.90202
 31
0.0
  0
LWPOLYLINE
  5
BC
330
17
100
AcDbEntity
  8
RECHTECKE
100
AcDbPolyline
 90
5
 70
0
 10
3567544.430240074
 20
5364929.750758482
 10
3567551.817890074
 20
5364945.740848482
 10
3567555.4490699256
 20
5364944.063191518
 10
3567548.0614199257
 20
5364928.073101519
 10
3567544.430240074
 20
5364929.750758482
  0
LINE
  5
BD
330
17
100
AcDbEntity
  8
LINIEN
100
AcDbLine
 10
3567523.57308
 20
5364938.99144
 30
0.0
 11
3567530.58174
 21
5364955.17607
 31
0.0
  0
LWPOLYLINE
  5
BE
330
17
100
AcDbEntity
  8
RECHTECKE
100
AcDbPolyline
 90
5
 70
0
 10
3567521.737775203
 20
5364939.78620808
 10
3567528.7464352027
 20
5364955.97083808
 10
3567532.417044797
 20
5364954.38130192
 10
3567525.408384797
 20
5364938.19667192
 10
3567521.737775203
 20
5364939.78620808
  0
LINE
  5
BF
330
17
100
AcDbEntity
  8
LINIEN
100
AcDbLine
 10
3567500.84096
 20
5364948.35045
 30
0.0
 11
3567507.09845
 21
5364964.86651
 31
0.0
  0
LWPOLYLINE
  5
C0
330
17
100
AcDbEntity
  8
RECHTECKE
100
AcDbPolyline
 90
5
 70
0
 10
3567498.970693881
 20
5364949.059043426
 10
3567505.228183881
 20
5364965.575103426
 10
3567508.968716119
 20
5364964.157916574
 10
3567502.711226119
 20
5364947.6418565735
 10
3567498.970693881
 20
5364949.059043426
  0
LINE
  5
C1
330
17
100
AcDbEntity
  8
LINIEN
100
AcDbLine
 10
3567477.62229
 20
5364957.04602
 30
0.0
 11
3567483.50729
 21
5364973.71904
 31
0.0
  0
LWPOLYLINE
  5
C2
330
17
100
AcDbEntity
  8
RECHTECKE
100
AcDbPolyline
 90
5
 70
0
 10
3567475.7363237003
 20
5364957.711700943
 10
3567481.6213237005
 20
5364974.384720943
 10
3567485.3932562997
 20
5364973.053359057
 10
3567479.5082562994
 20
5364956.380339057
 10
3567475.7363237003
 20
5364957.711700943
  0
LINE
  5
C3
330
17
100
AcDbEntity
  8
LINIEN
100
AcDbLine
 10
3567454.16371
 20
5364965.06048
 30
0.0
 11
3567459.64327
 21
5364981.89598
 31
0.0
  0
LWPOLYLINE
  5
C4
330
17
100
AcDbEntity
  8
RECHTECKE
100
AcDbPolyline
 90
5
 70
0
 10
3567452.261908433
 20
5364965.679471762
 10
3567457.741468433
 20
5364982.514971761
 10
3567461.545071567
 20
5364981.276988238
 10
3567456.065511567
 20
5364964.441488239
 10
3567452.261908433
 20
5364965.679471762
  0
LINE
  5
C5
330
17
100
AcDbEntity
  8
LINIEN
100
AcDbLine
 10
3567430.4581
 20
5364972.40922
 30
0.0
 11
3567435.5607
 21
5364989.38786
 31
0.0
  0
LWPOLYLINE
  5
C6
330
17
100
AcDbEntity
  8
RECHTECKE
100
AcDbPolyline
 90
5
 70
0
 10
3567428.542727344
 20
5364972.984847995
 10
3567433.645327344
 20
5364989.963487996
 10
3567437.4760726555
 20
5364988.8122320045
 10
3567432.3734726557
 20
5364971.833592004
 10
3567428.542727344
 20
5364972.984847995
  0
LINE
  5
C7
330
17
100
AcDbEntity
  8
LINIEN
100
AcDbLine
 10
3567406.78774
 20
5364979.02902
 30
0.0
 11
3567411.09478
 21
5364996.25311
 31
0.0
  0
LWPOLYLINE
  5
C8
330
17
100
AcDbEntity
  8
RECHTECKE
100
AcDbPolyline
 90
5
 70
0
 10
3567404.847481972
 20
5364979.5141991265
 10
3567409.154521972
 20
5364996.738289126
 10
3567413.035038028
 20
5364995.767930874
 10
3567408.727998028
 20
5364978.543840874
 10
3567404.847481972
 20
5364979.5141991265
  0
LINE
  5
C9
330
17
100
AcDbEntity
  8
LINIEN
100
AcDbLine
 10
3567382.72164
 20
5364984.9257
 30
0.0
 11
3567386.62317
 21
5365002.26812
 31
0.0
  0
LWPOLYLINE
  5
CA
330
17
100
AcDbEntity
  8
RECHTECKE
100
AcDbPolyline
 90
5
 70
0
 10
3567380.7704080916
 20
5364985.364669291
 10
3567384.6719380915
 20
5365002.707089292
 10
3567388.5744019086
 20
5365001.829150708
 10
3567384.6728719086
 20
5364984.486730708
 10
3567380.7704080916
 20
5364985.364669291
  0
LINE
  5
CB
330
17
100
AcDbEntity
  8
LINIEN
100
AcDbLine
 10
3567358.46589
 20
5364990.12676
 30
0.0
 11
3567361.96365
 21
5365007.58026
 31
0.0
  0
LWPOLYLINE
  5
CC
330
17
100
AcDbEntity
  8
RECHTECKE
100
AcDbPolyline
 90
5
 70
0
 10
3567356.504881342
 20
5364990.519754967
 10
3567360.0026413416
 20
5365007.973254967
 10
3567363.924658658
 20
5365007.187265034
 10
3567360.4268986583
 20
5364989.733765034
 10
3567356.504881342
 20
5364990.519754967
  0
LINE
  5
CD
330
17
100
AcDbEntity
  8
LINIEN
100
AcDbLine
 10
3567334.07519
 20
5364994.63953
 30
0.0
 11
3567337.1676
 21
5365012.19459
 31
0.0
  0
LWPOLYLINE
  5
CE
330
17
100
AcDbEntity
  8
RECHTECKE
100
AcDbPolyline
 90
5
 70
0
 10
3567332.105516562
 20
5364994.986497646
 10
3567335.197926562
 20
5365012.541557646
 10
3567339.137273438
 20
5365011.8476223545
 10
3567336.044863438
 20
5364994.292562354
 10
3567332.105516562
 20
5364994.986497646
  0
LINE
  5
CF
330
17
100
AcDbEntity
  8
LINIEN
100
AcDbLine
 10
3567309.80152
 20
5364998.43174
 30
0.0
 11
3567312.07933
 21
5365016.13759
 31
0.0
  0
LWPOLYLINE
  5
D0
330
17
100
AcDbEntity
  8
RECHTECKE
100
AcDbPolyline
 90
5
 70
0
 10
3567307.8178674937
 20
5364998.686931562
 10
3567310.0956774936
 20
5365016.392781562
 10
3567314.0629825066
 20
5365015.882398439
 10
3567311.7851725067
 20
5364998.176548438
 10
3567307.8178674937
 20
5364998.686931562
  0
LINE
  5
D1
330
17
100
AcDbEntity
  8
LINIEN
100
AcDbLine
 10
3567285.18437
 20
5365001.4644
 30
0.0
 11
3567287.05392
 21
5365019.24105
 31
0.0
  0
LWPOLYLINE
  5
D2
330
17
100
AcDbEntity
  8
RECHTECKE
100
AcDbPolyline
 90
5
 70
0
 10
3567283.1953395754
 20
5365001.673584061
 10
3567285.0648895754
 20
5365019.450234061
 10
3567289.0429504244
 20
5365019.0318659395
 10
3567287.1734004244
 20
5365001.255215939
 10
3567283.1953395754
 20
5365001.673584061
  0
LINE
  5
D3
330
17
100
AcDbEntity
  8
LINIEN
100
AcDbLine
 10
3567260.52
 20
5365003.79407
 30
0.0
 11
3567261.96481
 21
5365021.63561
 31
0.0
  0
LWPOLYLINE
  5
D4
330
17
100
AcDbEntity
  8
RECHTECKE
100
AcDbPolyline
 90
5
 70
0
 10
3567258.5265257014
 20
5365003.955501782
 10
3567259.971335701
 20
5365021.797041782
 10
3567263.9582842984
 20
5365021.474178218
 10
3567262.5134742986
 20
5365003.632638218
 10
3567258.5265257014
 20
5365003.955501782
  0
LINE
  5
D5
330
17
100
AcDbEntity
  8
LINIEN
100
AcDbLine
 10
3567235.76858
 20
5365005.38794
 30
0.0
 11
3567236.75803
 21
5365023.28594
 31
0.0
  0
LWPOLYLINE
  5
D6
330
17
100
AcDbEntity
  8
RECHTECKE
100
AcDbPolyline
 90
5
 70
0
 10
3567233.771629191
 20
5365005.498336859
 10
3567234.761079191
 20
5365023.396336859
 10
3567238.754980809
 20
5365023.175543141
 10
3567237.765530809
 20
5365005.277543141
 10
3567233.771629191
 20
5365005.498336859
  0
LINE
  5
D7
330
17
100
AcDbEntity
  8
LINIEN
100
AcDbLine
 10
3567211.28346
 20
5365006.20049
 30
0.0
 11
3567211.35806
 21
5365024.15075
 31
0.0
  0
LWPOLYLINE
  5
D8
330
17
100
AcDbEntity
  8
RECHTECKE
100
AcDbPolyline
 90
5
 70
0
 10
3567209.2834772714
 20
5365006.2088017855
 10
3567209.3580772714
 20
5365024.159061786
 10
3567213.3580427286
 20
5365024.142438214
 10
3567213.2834427287
 20
5365006.192178214
 10
3567209.2834772714
 20
5365006.2088017855
  0
LINE
  5
D9
330
17
100
AcDbEntity
  8
LINIEN
100
AcDbLine
 10
3567186.5434
 20
5365006.13987
 30
0.0
 11
3567186.13876
 21
5365024.1113
 31
0.0
  0
LWPOLYLINE
  5
DA
330
17
100
AcDbEntity
  8
RECHTECKE
100
AcDbPolyline
 90
5
 70
0
 10
3567184.5439067655
 20
5365006.094849936
 10
3567184.1392667657
 20
5365024.066279936
 10
3567188.1382532343
 20
5365024.156320064
 10
3567188.542893234
 20
5365006.184890064
 10
3567184.5439067655
 20
5365006.094849936
  0
LINE
  5
DB
330
17
100
AcDbEntity
  8
LINIEN
100
AcDbLine
 10
3567161.74235
 20
5365005.29538
 30
0.0
 11
3567160.88238
 21
5365023.27653
 31
0.0
  0
LWPOLYLINE
  5
DC
330
17
100
AcDbEntity
  8
RECHTECKE
100
AcDbPolyline
 90
5
 70
0
 10
3567159.7446334283
 20
5365005.199836817
 10
3567158.884663428
 20
5365023.180986817
 10
3567162.8800965715
 20
5365023.372073184
 10
3567163.7400665716
 20
5365005.390923183
 10
3567159.7446334283
 20
5365005.199836817
  0
LINE
  5
DD
330
17
100
AcDbEntity
  8
LINIEN
100
AcDbLine
 10
3567136.97782
 20
5365003.71416
 30
0.0
 11
3567135.68382
 21
5365021.69511
 31
0.0
  0
LWPOLYLINE
  5
DE
330
17
100
AcDbEntity
  8
RECHTECKE
100
AcDbPolyline
 90
5
 70
0
 10
3567134.982978939
 20
5365003.57060116
 10
3567133.688978939
 20
5365021.5515511595
 10
3567137.678661061
 20
5365021.83866884
 10
3567138.972661061
 20
5365003.85771884
 10
3567134.982978939
 20
5365003.57060116
  0
LINE
  5
DF
330
17
100
AcDbEntity
  8
LINIEN
100
AcDbLine
 10
3567112.58976
 20
5365001.40017
 30
0.0
 11
3567110.36749
 21
5365019.31595
 31
0.0
  0
LWPOLYLINE
  5
E0
330
17
100
AcDbEntity
  8
RECHTECKE
100
AcDbPolyline
 90
5
 70
0
 10
3567110.604970577
 20
5365001.153977091
 10
3567108.3827005774
 20
5365019.069757091
 10
3567112.352279423
 20
5365019.562142909
 10
3567114.5745494226
 20
5365001.646362909
 10
3567110.604970577
 20
5365001.153977091
  0
LINE
  5
E1
330
17
100
AcDbEntity
  8
LINIEN
100
AcDbLine
 10
3564977.21329
 20
5364982.78079
 30
0.0
 11
3564977.1804
 21
5364996.29575
 31
0.0
  0
LWPOLYLINE
  5
E2
330
17
100
AcDbEntity
  8
RECHTECKE
100
AcDbPolyline
 90
5
 70
0
 10
3564975.213295922
 20
5364982.775922815
 10
3564975.1804059222
 20
5364996.290882815
 10
3564979.1803940777
 20
5364996.3006171845
 10
3564979.2132840776
 20
5364982.785657185
 10
3564975.213295922
 20
5364982.775922815
  0
LINE
  5
E3
330
17
100
AcDbEntity
  8
LINIEN
100
AcDbLine
 10
3564952.51443
 20
5364982.18872
 30
0.0
 11
3564951.93536
 21
5364995.69131
 31
0.0
  0
LWPOLYLINE
  5
E4
330
17
100
AcDbEntity
  8
RECHTECKE
100
AcDbPolyline
 90
5
 70
0
 10
3564950.5162666626
 20
5364982.103027074
 10
3564949.9371966626
 20
5364995.605617073
 10
3564953.9335233374
 20
5364995.777002926
 10
3564954.5125933373
 20
5364982.274412926
 10
3564950.5162666626
 20
5364982.103027074
  0
LINE
  5
E5
330
17
100
AcDbEntity
  8
LINIEN
100
AcDbLine
 10
3564927.71907
 20
5364980.93656
 30
0.0
 11
3564926.81442
 21
5364994.42125
 31
0.0
  0
LWPOLYLINE
  5
E6
330
17
100
AcDbEntity
  8
RECHTECKE
100
AcDbPolyline
 90
5
 70
0
 10
3564925.723555556
 20
5364980.802686538
 10
3564924.818905556
 20
5364994.287376537
 10
3564928.8099344443
 20
5364994.555123462
 10
3564929.714584444
 20
5364981.070433463
 10
3564925.723555556
 20
5364980.802686538
  0
LINE
  5
E7
330
17
100
AcDbEntity
  8
LINIEN
100
AcDbLine
 10
3564902.94453
 20
5364979.00555
 30
0.0
 11
3564901.25081
 21
5364998.22677
 31
0.0
  0
LWPOLYLINE
  5
E8
330
17
100
AcDbEntity
  8
RECHTECKE
100
AcDbPolyline
 90
5
 70
0
 10
3564900.9522497137
 20
5364978.829995848
 10
3564899.258529714
 20
5364998.051215848
 10
3564903.2430902864
 20
5364998.402324151
 10
3564904.9368102862
 20
5364979.1811041515
 10
3564900.9522497137
 20
5364978.829995848
  0
LINE
  5
E9
330
17
100
AcDbEntity
  8
LINIEN
100
AcDbLine
 10
3564878.25336
 20
5364976.4051
 30
0.0
 11
3564876.18674
 21
5364994.84378
 31
0.0
  0
LWPOLYLINE
  5
EA
330
17
100
AcDbEntity
  8
RECHTECKE
100
AcDbPolyline
 90
5
 70
0
 10
3564876.2658049525
 20
5364976.182333456
 10
3564874.1991849523
 20
5364994.621013456
 10
3564878.1742950473
 20
5364995.0665465435
 10
3564880.2409150475
 20
5364976.627866544
 10
3564876.2658049525
 20
5364976.182333456
  0
LINE
  5
EB
330
17
100
AcDbEntity
  8
LINIEN
100
AcDbLine
 10
3564853.82415
 20
5364973.05425
 30
0.0
 11
3564850.8912
 21
5364991.23119
 31
0.0
  0
LWPOLYLINE
  5
EC
330
17
100
AcDbEntity
  8
RECHTECKE
100
AcDbPolyline
 90
5
 70
0
 10
3564851.8496880056
 20
5364972.735659615
 10
3564848.916738006
 20
5364990.912599615
 10
3564852.865661994
 20
5364991.549780385
 10
3564855.798611994
 20
5364973.372840385
 10
3564851.8496880056
 20
5364972.735659615
  0
LINE
  5
ED
330
17
100
AcDbEntity
  8
LINIEN
100
AcDbLine
 10
3564829.34562
 20
5364968.91099
 30
0.0
 11
3564825.9721
 21
5364987.01134
 31
0.0
  0
LWPOLYLINE
  5
EE
330
17
100
AcDbEntity
  8
RECHTECKE
100
AcDbPolyline
 90
5
 70
0
 10
3564827.3794774553
 20
5364968.544542876
 10
3564824.0059574554
 20
5364986.644892876
 10
3564827.9382425444
 20
5364987.377787123
 10
3564831.3117625443
 20
5364969.2774371235
 10
3564827.3794774553
 20
5364968.544542876
  0
LINE
  5
EF
330
17
100
AcDbEntity
  8
LINIEN
100
AcDbLine
 10
3564804.9834
 20
5364964.07602
 30
0.0
 11
3564801.2041
 21
5364982.09602
 31
0.0
  0
LWPOLYLINE
  5
F0
330
17
100
AcDbEntity
  8
RECHTECKE
100
AcDbPolyline
 90
5
 70
0
 10
3564803.0259860195
 20
5364963.665495324
 10
3564799.24668602
 20
5364981.685495324
 10
3564803.1615139805
 20
5364982.506544676
 10
3564806.94081398
 20
5364964.486544675
 10
3564803.0259860195
 20
5364963.665495324
  0
LINE
  5
F1
330
17
100
AcDbEntity
  8
LINIEN
100
AcDbLine
 10
3564780.77699
 20
5364958.55973
 30
0.0
 11
3564776.56535
 21
5364976.48361
 31
0.0
  0
LWPOLYLINE
  5
F2
330
17
100
AcDbEntity
  8
RECHTECKE
100
AcDbPolyline
 90
5
 70
0
 10
3564778.830016657
 20
5364958.102242514
 10
3564774.6183766564
 20
5364976.026122514
 10
3564778.512323343
 20
5364976.941097487
 10
3564782.7239633435
 20
5364959.017217486
 10
3564778.830016657
 20
5364958.102242514
  0
ENDSEC
  0
SECTION
  2
OBJECTS
  0
DICTIONARY
  5
A
330
0
100
AcDbDictionary
281
1
  3
ACAD_COLOR
350
B
  3
ACAD_GROUP
350
C
  3
ACAD_LAYOUT
350
D
  3
ACAD_MATERIAL
350
E
  3
ACAD_MLEADERSTYLE
350
F
  3
ACAD_MLINESTYLE
350
10
  3
ACAD_PLOTSETTINGS
350
11
  3
ACAD_PLOTSTYLENAME
350
12
  3
ACAD_SCALELIST
350
14
  3
ACAD_TABLESTYLE
350
15
  3
ACAD_VISUALSTYLE
350
16
  3
EZDXF_META
350
2D
  0
DICTIONARY
  5
B
330
A
100
AcDbDictionary
281
1
  0
DICTIONARY
  5
C
330
A
100
AcDbDictionary
281
1
  0
DICTIONARY
  5
D
330
A
100
AcDbDictionary
281
1
  3
Model
350
1A
  3
Layout1
350
1E
  0
DICTIONARY
  5
E
330
A
100
AcDbDictionary
281
1
  3
ByBlock
350
1F
  3
ByLayer
350
20
  3
Global
350
21
  0
DICTIONARY
  5
F
330
A
100
AcDbDictionary
281
1
  3
Standard
350
2C
  0
DICTIONARY
  5
10
330
A
100
AcDbDictionary
281
1
  3
Standard
350
22
  0
DICTIONARY
  5
11
330
A
100
AcDbDictionary
281
1
  0
ACDBDICTIONARYWDFLT
  5
12
330
A
100
AcDbDictionary
281
1
  3
Normal
350
13
100
AcDbDictionaryWithDefault
340
13
  0
ACDBPLACEHOLDER
  5
13
330
12
  0
DICTIONARY
  5
14
330
A
100
AcDbDictionary
281
1
  0
DICTIONARY
  5
15
330
A
100
AcDbDictionary
281
1
  0
DICTIONARY
  5
16
330
A
100
AcDbDictionary
281
1
  0
LAYOUT
  5
1A
330
D
100
AcDbPlotSettings
  1

  4
A3
  6

 40
7.5
 41
20.0
 42
7.5
 43
20.0
 44
420.0
 45
297.0
 46
0.0
 47
0.0
 48
0.0
 49
0.0
140
0.0
141
0.0
142
1.0
143
1.0
 70
1024
 72
1
 73
0
 74
5
  7

 75
16
 76
0
 77
2
 78
300
147
1.0
148
0.0
149
0.0
100
AcDbLayout
  1
Model
 70
1
 71
0
 10
0.0
 20
0.0
 11
420.0
 21
297.0
 12
0.0
 22
0.0
 32
0.0
 14
1e+20
 24
1e+20
 34
1e+20
 15
-1e+20
 25
-1e+20
 35
-1e+20
146
0.0
 13
0.0
 23
0.0
 33
0.0
 16
1.0
 26
0.0
 36
0.0
 17
0.0
 27
1.0
 37
0.0
 76
1
330
17
  0
LAYOUT
  5
1E
330
D
100
AcDbPlotSettings
  1

  4
A3
  6

 40
7.5
 41
20.0
 42
7.5
 43
20.0
 44
420.0
 45
297.0
 46
0.0
 47
0.0
 48
0.0
 49
0.0
140
0.0
141
0.0
142
1.0
143
1.0
 70
0
 72
1
 73
0
 74
5
  7

 75
16
 76
0
 77
2
 78
300
147
1.0
148
0.0
149
0.0
100
AcDbLayout
  1
Layout1
 70
1
 71
1
 10
0.0
 20
0.0
 11
420.0
 21
297.0
 12
0.0
 22
0.0
 32
0.0
 14
1e+20
 24
1e+20
 34
1e+20
 15
-1e+20
 25
-1e+20
 35
-1e+20
146
0.0
 13
0.0
 23
0.0
 33
0.0
 16
1.0
 26
0.0
 36
0.0
 17
0.0
 27
1.0
 37
0.0
 76
1
330
1B
  0
MATERIAL
  5
1F
102
{ACAD_REACTORS
330
E
102
}
330
E
100
AcDbMaterial
  1
ByBlock
  2

 70
0
 40
1.0
 71
1
 41
1.0
 91
-1023410177
 42
1.0
 72
1
  3

 73
1
 74
1
 75
1
 44
0.5
 73
0
 45
1.0
 46
1.0
 77
1
  4

 78
1
 79
1
170
1
 48
1.0
171
1
  6

172
1
173
1
174
1
140
1.0
141
1.0
175
1
  7

176
1
177
1
178
1
143
1.0
179
1
  8

270
1
271
1
272
1
145
1.0
146
1.0
273
1
  9

274
1
275
1
276
1
 42
1.0
 72
1
  3

 73
1
 74
1
 75
1
 94
63
  0
MATERIAL
  5
20
102
{ACAD_REACTORS
330
E
102
}
330
E
100
AcDbMaterial
  1
ByLayer
  2

 70
0
 40
1.0
 71
1
 41
1.0
 91
-1023410177
 42
1.0
 72
1
  3

 73
1
 74
1
 75
1
 44
0.5
 73
0
 45
1.0
 46
1.0
 77
1
  4

 78
1
 79
1
170
1
 48
1.0
171
1
  6

172
1
173
1
174
1
140
1.0
141
1.0
175
1
  7

176
1
177
1
178
1
143
1.0
179
1
  8

270
1
271
1
272
1
145
1.0
146
1.0
273
1
  9

274
1
275
1
276
1
 42
1.0
 72
1
  3

 73
1
 74
1
 75
1
 94
63
  0
MATERIAL
  5
21
102
{ACAD_REACTORS
330
E
102
}
330
E
100
AcDbMaterial
  1
Global
  2

 70
0
 40
1.0
 71
1
 41
1.0
 91
-1023410177
 42
1.0
 72
1
  3

 73
1
 74
1
 75
1
 44
0.5
 73
0
 45
1.0
 46
1.0
 77
1
  4

 78
1
 79
1
170
1
 48
1.0
171
1
  6

172
1
173
1
174
1
140
1.0
141
1.0
175
1
  7

176
1
177
1
178
1
143
1.0
179
1
  8

270
1
271
1
272
1
145
1.0
146
1.0
273
1
  9

274
1
275
1
276
1
 42
1.0
 72
1
  3

 73
1
 74
1
 75
1
 94
63
  0
MLINESTYLE
  5
22
102
{ACAD_REACTORS
330
10
102
}
330
10
100
AcDbMlineStyle
  2
Standard
 70
0
  3

 62
256
 51
90.0
 52
90.0
 71
2
 49
0.5
 62
256
  6
BYLAYER
 49
-0.5
 62
256
  6
BYLAYER
  0
MLEADERSTYLE
  5
2C
102
{ACAD_REACTORS
330
F
102
}
330
F
100
AcDbMLeaderStyle
179
2
170
2
171
1
172
0
 90
2
 40
0.0
 41
0.0
173
1
 91
-1056964608
 92
-2
290
1
 42
2.0
291
1
 43
8.0
  3
Standard
 44
4.0
300

342
29
174
1
175
1
176
0
178
1
 93
-1056964608
 45
4.0
292
0
297
0
 46
4.0
 94
-1056964608
 47
1.0
 49
1.0
140
1.0
294
1
141
0.0
177
0
142
1.0
295
0
296
0
143
3.75
271
0
272
9
273
9
  0
DICTIONARY
  5
2D
330
A
100
AcDbDictionary
280
1
281
1
  3
CREATED_BY_EZDXF
350
2E
  3
WRITTEN_BY_EZDXF
350
F5
  0
DICTIONARYVAR
  5
2E
330
2D
100
DictionaryVariables
280
0
  1
1.4.3 @ 2026-03-09T08:08:53.165642+00:00
  0
DICTIONARYVAR
  5
F5
330
2D
100
DictionaryVariables
280
0
  1
1.4.3 @ 2026-03-09T08:08:53.172721+00:00
  0
ENDSEC
  0
EOF
